<?xml version="1.0" encoding="UTF-8"?>
<svg width="354" height="418" viewBox="0 0 354 418" fill="none" xmlns="http://www.w3.org/2000/svg">
    <path d="M177.018 24.2327C196.563 24.1964 216.043 26.4792 235.05 31.0332C256.435 36.2136 277.022 44.258 296.254 54.9484V170.92C296.357 210.05 283.801 248.163 260.461 279.57C239.301 308.11 210.315 329.899 177.018 342.293C142.012 329.323 111.813 305.951 90.4783 275.316C69.1434 244.682 57.6945 208.252 57.6693 170.92V55.0391C94.1836 34.7839 135.262 24.1807 177.018 24.2327ZM177.018 0.000176874C126.229 -0.0579984 76.4563 14.2357 33.4368 41.234V170.92C33.4415 214.735 47.344 257.42 73.1445 292.834C98.945 328.247 135.314 354.564 177.018 367.999C218.719 354.56 255.083 328.242 280.879 292.828C306.675 257.415 320.574 214.733 320.577 170.92V41.234C277.564 14.2398 227.8 -0.0537261 177.018 0.000176874Z" fill="#B80934"/>
    <path d="M120.959 229.723L81.5388 170.921L120.959 112.119L141.066 125.607L110.69 170.921L141.066 216.212L120.959 229.723Z" fill="#B80934"/>
    <path d="M233.076 229.723L212.947 216.212L243.322 170.921L212.947 125.607L233.076 112.119L272.496 170.921L233.076 229.723Z" fill="#B80934"/>
    <path d="M178.748 95.4155L151.45 241.985L175.273 246.422L202.571 99.8523L178.748 95.4155Z" fill="#B80934"/>
    <path d="M177.018 24.2327C196.563 24.1964 216.043 26.4792 235.05 31.0332C256.435 36.2136 277.022 44.258 296.254 54.9484V170.92C296.357 210.05 283.801 248.163 260.461 279.57C239.301 308.11 210.315 329.899 177.018 342.293C142.012 329.323 111.813 305.951 90.4783 275.316C69.1434 244.682 57.6945 208.252 57.6693 170.92V55.0391C94.1836 34.7839 135.262 24.1807 177.018 24.2327ZM177.018 0.000176874C126.229 -0.0579984 76.4563 14.2357 33.4368 41.234V170.92C33.4415 214.735 47.344 257.42 73.1445 292.834C98.945 328.247 135.314 354.564 177.018 367.999C218.719 354.56 255.083 328.242 280.879 292.828C306.675 257.415 320.574 214.733 320.577 170.92V41.234C277.564 14.2398 227.8 -0.0537261 177.018 0.000176874Z" fill="#B80934"/>
    <path d="M10.3141 78.0234L10.5861 127.667L10.7222 152.603V165.002C10.7222 169.15 10.7222 173.276 10.7222 177.402C10.9333 185.621 11.5764 193.823 12.649 201.974C13.728 210.142 15.2414 218.246 17.1827 226.252C20.9673 242.278 26.4067 257.867 33.4132 272.768C36.9042 280.203 40.8258 287.457 45.0421 294.507C49.2957 301.536 53.9033 308.346 58.8472 314.908C73.6951 334.66 91.503 352.002 111.642 366.32C118.323 371.106 125.254 375.533 132.406 379.581C139.553 383.644 146.907 387.329 154.44 390.621C161.963 393.92 169.65 396.833 177.471 399.348H176.406C192.076 394.351 207.18 387.726 221.47 379.581C228.624 375.532 235.563 371.113 242.257 366.343C248.947 361.561 255.393 356.447 261.571 351.019C267.75 345.592 273.644 339.849 279.229 333.814C284.843 327.791 290.139 321.481 295.097 314.908C300.039 308.344 304.646 301.535 308.902 294.507C313.119 287.457 317.018 280.203 320.509 272.768C327.522 257.867 332.969 242.278 336.762 226.252C338.679 218.248 340.192 210.153 341.296 201.997C342.357 193.829 343 185.613 343.222 177.379C343.336 173.276 343.336 169.15 343.336 165.002V152.603L343.472 127.667L343.744 78.0234H345.489C346.033 82.1718 346.487 86.2974 346.963 90.4457C347.439 94.5941 347.892 98.7197 348.277 102.845L349.479 115.268C349.887 119.393 350.272 123.542 350.59 127.667L352.562 152.603C352.924 156.728 353.151 160.876 353.4 165.002L353.786 171.213C353.786 173.48 353.967 175.52 353.967 177.674C354.106 186.298 353.804 194.923 353.06 203.516C352.879 205.783 352.675 207.823 352.426 209.954C352.176 212.084 351.904 214.261 351.61 216.414C350.975 220.676 350.227 224.96 349.343 229.222C347.651 237.743 345.495 246.166 342.882 254.452C340.291 262.766 337.264 270.937 333.815 278.934C330.267 286.92 326.287 294.707 321.891 302.259C317.532 309.856 312.789 317.225 307.678 324.338C302.551 331.433 297.042 338.243 291.176 344.74C285.312 351.28 279.123 357.522 272.633 363.441C266.077 369.313 259.23 374.851 252.118 380.035C245.001 385.214 237.624 390.026 230.016 394.452C222.393 398.852 214.547 402.855 206.509 406.443C198.439 410.025 190.188 413.244 181.823 415.919L177.018 417.483L172.28 415.919C163.895 413.185 155.655 410.022 147.594 406.443C139.51 402.851 131.618 398.841 123.951 394.429C116.326 390.027 108.941 385.222 101.826 380.035C94.7086 374.844 87.8854 369.29 81.4249 363.441C74.9164 357.534 68.7196 351.291 62.8595 344.74C57.0056 338.233 51.4971 331.423 46.3569 324.338C41.2415 317.221 36.4974 309.844 32.1438 302.237C27.7975 294.656 23.8773 286.838 20.4016 278.82C16.9498 270.825 13.9231 262.653 11.3342 254.338C8.60872 246.066 6.33847 237.651 4.53368 229.131C2.8369 220.639 1.63345 212.056 0.929405 203.425C0.725389 201.272 0.612047 199.118 0.453368 196.965C0.294689 194.811 0.204016 192.68 0.158679 190.413C0.113342 188.147 0 186.197 0 184.044C0 181.89 0 179.691 0 177.515V175.883V174.319L0.226684 171.213L0.612047 164.911C0.884068 160.786 1.08808 156.637 1.45078 152.512L3.4456 127.577L3.9443 121.388L4.53368 115.268L5.73511 102.845C6.0978 98.7197 6.57384 94.5714 7.04987 90.4457C7.52591 86.3201 7.97928 82.1718 8.54599 78.0234H10.3141Z" fill="#B80934"/>
    <path d="M120.959 229.723L81.5388 170.921L120.959 112.119L141.066 125.607L110.69 170.921L141.066 216.212L120.959 229.723Z" fill="#B80934"/>
    <path d="M233.077 229.721L212.947 216.211L243.323 170.919L212.947 125.605L233.077 112.117L272.497 170.919L233.077 229.721Z" fill="#B80934"/>
    <path d="M178.748 95.4145L151.451 241.984L175.274 246.421L202.571 99.8513L178.748 95.4145Z" fill="#B80934"/>
</svg>